# xmcd
#
# Track frame offsets: 
#        150
#        10244
#        29142
#        43844
#        53938
#        68461
#        80724
#        95355
#        108638
#        122299
#        133989
#        147174
#        160392
#        181297
#        191962
#        205025
#
# Disc length: 2899 seconds
#
# Revision: 0
# Processed by: cddbd v1.5.2PL0 Copyright (c) Steve Scherf et al.
# Submitted via: ExactAudioCopy v0.99pb4
#
DISCID=e90b5110
DTITLE=Dr. John - Anttime, Anyplace
DYEAR=2009
DGENRE=Blues
TTITLE0=Woman is the root of all evil
TTITLE1=Shoo ra
TTITLE2=Tipitina
TTITLE3=One night tale
TTITLE4=A little closer to my home
TTITLE5=Go ahead on
TTITLE6=Make your own
TTITLE7=Mama roux
TTITLE8=She´s just a square
TTITLE9=Bald headed
TTITLE10=In the night
TTITLE11=Helping hand
TTITLE12=Mean cheatin' woman
TTITLE13=The ear is on strike
TTITLE14=I pulled the cover off you two lovers
TTITLE15=Did she mention my name
EXTD=
EXTT0=
EXTT1=
EXTT2=
EXTT3=
EXTT4=
EXTT5=
EXTT6=
EXTT7=
EXTT8=
EXTT9=
EXTT10=
EXTT11=
EXTT12=
EXTT13=
EXTT14=
EXTT15=
PLAYORDER=
